<svg width="100%" viewBox="0 0 680 600" role="img" xmlns="http://www.w3.org/2000/svg">
<title>Locomotion deck wiring diagram</title>
<desc>Block wiring diagram of the Mark 1 Locomotion Control Unit: an ESP32-S3 in a clean logic domain controls six drive motors and four steering servos across a galvanic isolation barrier, with separate motor and servo power domains, parking-pawl solenoids, AS5600 encoders, a BNO085 IMU, INA219 current sensing, and a single-point star ground. Compute is powered directly; motor, servo, and pawl power passes through the E-stop contactor.</desc>
<defs>
<marker id="ah" viewBox="0 0 8 8" markerWidth="6" markerHeight="6" refX="6.5" refY="4" orient="auto-start-reverse"><path d="M0,0 L8,4 L0,8 z" fill="context-stroke"/></marker>
<style>
text{font-family:-apple-system,BlinkMacSystemFont,"Segoe UI",system-ui,sans-serif}
.lab{font-size:14px;font-weight:500;fill:#1f2328}
.sub{font-size:12px;font-weight:400;fill:#656d76}
.zh{font-size:12px;font-weight:500;fill:#656d76}
.ln{font-size:12px;font-weight:400;fill:#656d76}
.bg{fill:#ffffff}
@media (prefers-color-scheme:dark){.lab{fill:#e6edf3}.sub,.zh,.ln{fill:#9aa0a8}.bg{fill:#0d1117}}
</style>
</defs>
<rect class="bg" x="0" y="0" width="680" height="600"/>
<line x1="356" y1="144" x2="356" y2="518" stroke="#9aa0a8" stroke-width="1.5" stroke-dasharray="5 4"/>
<text class="zh" x="350" y="374" text-anchor="middle">galvanic isolation</text>
<rect x="44" y="148" width="270" height="300" rx="6" fill="rgba(46,160,99,0.08)" stroke="rgba(46,160,99,0.5)"/>
<text class="zh" x="52" y="166">clean logic domain</text>
<rect x="428" y="148" width="212" height="192" rx="6" fill="rgba(201,74,58,0.08)" stroke="rgba(201,74,58,0.5)"/>
<text class="zh" x="436" y="170">motor domain · isolated</text>
<rect x="428" y="392" width="212" height="120" rx="6" fill="rgba(196,138,30,0.1)" stroke="rgba(196,138,30,0.55)"/>
<text class="zh" x="436" y="410">servo domain · isolated</text>
<rect x="44" y="44" width="190" height="42" rx="4" fill="rgba(120,125,135,0.16)" stroke="#7a7f88"/>
<text class="lab" x="139" y="62" text-anchor="middle">14.8 V from backbone</text>
<text class="sub" x="139" y="77" text-anchor="middle">M12 · fused per-deck</text>
<rect x="248" y="44" width="170" height="42" rx="4" fill="rgba(120,125,135,0.16)" stroke="#7a7f88"/>
<text class="lab" x="333" y="62" text-anchor="middle">E-stop contactor</text>
<text class="sub" x="333" y="77" text-anchor="middle">cuts motor/servo/pawl</text>
<rect x="470" y="44" width="170" height="42" rx="4" fill="rgba(120,125,135,0.16)" stroke="#7a7f88"/>
<text class="lab" x="555" y="62" text-anchor="middle">Core Hub</text>
<text class="sub" x="555" y="77" text-anchor="middle">USB CDC link</text>
<rect x="104" y="174" width="170" height="40" rx="4" fill="rgba(46,160,99,0.16)" stroke="#2e9d63"/>
<text class="lab" x="189" y="191" text-anchor="middle">5 V / 3 A buck</text>
<text class="sub" x="189" y="205" text-anchor="middle">clean logic rail</text>
<rect x="104" y="230" width="170" height="52" rx="4" fill="rgba(46,160,99,0.16)" stroke="#2e9d63"/>
<text class="lab" x="189" y="252" text-anchor="middle">ESP32-S3</text>
<text class="sub" x="189" y="268" text-anchor="middle">motion controller</text>
<rect x="54" y="300" width="116" height="44" rx="4" fill="rgba(46,160,99,0.16)" stroke="#2e9d63"/>
<text class="lab" x="112" y="319" text-anchor="middle">TCA9548A</text>
<text class="sub" x="112" y="334" text-anchor="middle">I2C mux 0x70</text>
<rect x="190" y="300" width="116" height="44" rx="4" fill="rgba(46,160,99,0.16)" stroke="#2e9d63"/>
<text class="lab" x="248" y="319" text-anchor="middle">BNO085</text>
<text class="sub" x="248" y="334" text-anchor="middle">IMU 0x4A</text>
<rect x="54" y="372" width="116" height="44" rx="4" fill="rgba(46,160,99,0.16)" stroke="#2e9d63"/>
<text class="lab" x="112" y="391" text-anchor="middle">6× AS5600</text>
<text class="sub" x="112" y="406" text-anchor="middle">wheel encoders</text>
<rect x="312" y="224" width="84" height="60" rx="4" fill="rgba(120,125,135,0.22)" stroke="#6b7280"/>
<text class="lab" x="354" y="250" text-anchor="middle">ISO7741</text>
<text class="sub" x="354" y="266" text-anchor="middle">×5 digital iso</text>
<rect x="312" y="300" width="84" height="44" rx="4" fill="rgba(120,125,135,0.22)" stroke="#6b7280"/>
<text class="lab" x="354" y="319" text-anchor="middle">ISO1640</text>
<text class="sub" x="354" y="334" text-anchor="middle">I2C iso</text>
<rect x="436" y="176" width="120" height="40" rx="4" fill="rgba(201,74,58,0.16)" stroke="#c0493a"/>
<text class="lab" x="496" y="193" text-anchor="middle">isolated 5 V</text>
<text class="sub" x="496" y="207" text-anchor="middle">driver logic</text>
<rect x="566" y="176" width="72" height="40" rx="4" fill="rgba(201,74,58,0.16)" stroke="#c0493a"/>
<text class="lab" x="602" y="193" text-anchor="middle">pawl FET</text>
<text class="sub" x="602" y="207" text-anchor="middle">solenoids</text>
<rect x="436" y="232" width="120" height="44" rx="4" fill="rgba(201,74,58,0.16)" stroke="#c0493a"/>
<text class="lab" x="496" y="251" text-anchor="middle">3× MDD10A</text>
<text class="sub" x="496" y="266" text-anchor="middle">dual 10 A</text>
<rect x="566" y="232" width="72" height="44" rx="4" fill="rgba(201,74,58,0.16)" stroke="#c0493a"/>
<text class="lab" x="602" y="251" text-anchor="middle">INA219</text>
<text class="sub" x="602" y="266" text-anchor="middle">bus sense</text>
<rect x="436" y="288" width="120" height="42" rx="4" fill="rgba(201,74,58,0.16)" stroke="#c0493a"/>
<text class="lab" x="496" y="305" text-anchor="middle">6× drive motor</text>
<text class="sub" x="496" y="320" text-anchor="middle">37D ~70:1</text>
<rect x="436" y="420" width="120" height="40" rx="4" fill="rgba(196,138,30,0.2)" stroke="#b9831e"/>
<text class="lab" x="496" y="437" text-anchor="middle">6 V UBEC</text>
<text class="sub" x="496" y="451" text-anchor="middle">servo rail</text>
<rect x="436" y="470" width="160" height="40" rx="4" fill="rgba(196,138,30,0.2)" stroke="#b9831e"/>
<text class="lab" x="516" y="487" text-anchor="middle">4× steer servo</text>
<text class="sub" x="516" y="501" text-anchor="middle">DS3218 open-loop</text>
<rect x="44" y="530" width="596" height="32" rx="4" fill="rgba(120,125,135,0.16)" stroke="#7a7f88"/>
<text class="lab" x="342" y="546" text-anchor="middle">star ground</text>
<text class="sub" x="342" y="558" text-anchor="middle">clean · motor · servo grounds join only at battery negative</text>
<path d="M70,86 L70,160 L150,160 L150,174" fill="none" stroke="#c0493a" stroke-width="2" marker-end="url(#ah)"/>
<text class="ln" x="74" y="122">14.8 V</text>
<path d="M234,65 L248,65" fill="none" stroke="#c0493a" stroke-width="2" marker-end="url(#ah)"/>
<path d="M333,86 L333,118 L520,118 L520,148" fill="none" stroke="#c0493a" stroke-width="2" marker-end="url(#ah)"/>
<text class="ln" x="362" y="113">14.8 V switched</text>
<path d="M600,340 L600,418 L558,418" fill="none" stroke="#c0493a" stroke-width="2" marker-end="url(#ah)"/>
<path d="M496,276 L496,288" fill="none" stroke="#c0493a" stroke-width="1.6" marker-end="url(#ah)"/>
<path d="M274,250 L312,250" fill="none" stroke="#4a73c7" stroke-width="1.4" marker-end="url(#ah)"/>
<path d="M396,250 L436,250" fill="none" stroke="#4a73c7" stroke-width="1.4" marker-end="url(#ah)"/>
<text class="ln" x="400" y="244">drive</text>
<path d="M396,232 L412,232 L412,156 L600,156 L600,176" fill="none" stroke="#4a73c7" stroke-width="1.4" marker-end="url(#ah)"/>
<text class="ln" x="470" y="151">pawl</text>
<path d="M396,278 L412,278 L412,490 L436,490" fill="none" stroke="#4a73c7" stroke-width="1.4" marker-end="url(#ah)"/>
<text class="ln" x="416" y="432">servo</text>
<path d="M124,282 L112,300" fill="none" stroke="#1f9e8f" stroke-width="1.4" marker-end="url(#ah)"/>
<text class="ln" x="78" y="296">I2C0</text>
<path d="M112,344 L112,372" fill="none" stroke="#1f9e8f" stroke-width="1.4" marker-end="url(#ah)"/>
<path d="M236,282 L248,300" fill="none" stroke="#1f9e8f" stroke-width="1.4" marker-end="url(#ah)"/>
<path d="M274,266 L293,266 L293,322 L312,322" fill="none" stroke="#1f9e8f" stroke-width="1.4" marker-end="url(#ah)"/>
<text class="ln" x="297" y="300">I2C1</text>
<path d="M396,322 L412,322 L412,344 L600,344 L600,278" fill="none" stroke="#1f9e8f" stroke-width="1.4" marker-end="url(#ah)"/>
<path d="M274,240 L305,240 L305,100 L545,100 L545,86" fill="none" stroke="#8a8f98" stroke-width="1.4" marker-end="url(#ah)"/>
<text class="ln" x="360" y="96">USB CDC</text>
<line x1="44" y1="582" x2="62" y2="582" stroke="#4a73c7" stroke-width="2"/>
<text class="ln" x="66" y="586">control</text>
<line x1="140" y1="582" x2="158" y2="582" stroke="#1f9e8f" stroke-width="2"/>
<text class="ln" x="162" y="586">I2C</text>
<line x1="210" y1="582" x2="228" y2="582" stroke="#c0493a" stroke-width="2"/>
<text class="ln" x="232" y="586">power</text>
<line x1="300" y1="582" x2="318" y2="582" stroke="#8a8f98" stroke-width="2"/>
<text class="ln" x="322" y="586">USB link</text>
</svg>
